<svg xmlns="http://www.w3.org/2000/svg"
shape-rendering="geometricPrecision"
width="4000" height="4000" viewBox="0 0 1024 1024"><rect width="100%" height="100%" fill="#010200" />
  <metadata>null</metadata>

<path d="
M 161.314 545.362
C 169.288 545.01 177.646 544.793 185.61 545.365
C 186.074 546.02 185.753 547.699 185.748 548.503
C 185.732 551.005 185.735 553.506 185.724 556.008
C 185.68 566.009 185.595 576.009 185.671 586.01
C 185.69 588.511 185.669 591.014 185.689 593.514
C 185.693 593.899 185.559 595.336 186.114 595.464
C 186.516 595.557 187.788 593.649 188.057 593.365
C 198.785 582.099 209.209 570.532 219.853 559.181
C 222.723 556.12 225.751 553.198 228.535 550.059
C 229.918 548.5 231.51 546.067 233.425 545.175
C 240.934 544.47 248.957 545.191 256.505 545.32
C 258.809 545.359 261.297 545.677 263.579 545.459
C 263.261 546.614 261.371 547.85 260.536 548.735
C 257.818 551.614 255.025 554.512 252.46 557.526
C 244.392 567.011 235.266 575.761 226.77 584.88
C 224.515 587.3 222.242 589.704 219.966 592.103
C 218.875 593.253 217.481 594.263 216.66 595.625
C 224.989 607.293 233.671 618.722 242.16 630.276
C 250.094 641.075 258.087 651.983 266.893 662.068
C 266.478 662.395 265.232 662.248 264.729 662.258
C 262.826 662.298 260.914 662.217 259.01 662.216
C 253.677 662.212 248.344 662.177 243.011 662.2
C 240.692 662.21 237.957 662.668 235.685 662.263
C 232.934 659.191 230.638 655.481 228.178 652.161
C 222.722 644.795 217.134 637.479 211.873 629.973
C 208.048 624.516 204.3 618.893 200.065 613.743
C 196.954 616.95 193.967 620.278 190.849 623.484
C 189.276 625.102 186.889 626.986 185.885 629.031
C 185.514 629.786 185.799 631.029 185.815 631.852
C 185.857 633.973 185.813 636.098 185.827 638.219
C 185.863 643.648 185.806 649.078 185.794 654.507
C 185.789 657.003 186.088 659.705 185.84 662.179
C 180.355 661.989 174.849 662.007 169.361 662.015
C 166.728 662.019 163.906 661.647 161.304 662.055
C 160.315 659.12 161.157 654.609 161.164 651.499
C 161.182 643.666 161.17 635.833 161.176 628.001
C 161.19 609.168 161.198 590.336 161.212 571.504
C 161.216 565.67 161.21 559.837 161.208 554.004
C 161.207 551.257 160.659 548.037 161.314 545.362 Z"
opacity="1" fill="rgb(254,254,255)" fill-rule="evenodd" />
<path d="
M 274.516 640.629
C 275.124 637.3 274.631 633.389 274.643 629.998
C 274.668 622.665 274.667 615.332 274.679 607.999
C 274.718 585.547 274.878 563.082 274.709 540.631
C 282.556 540.489 290.451 540.826 298.294 540.61
C 297.648 545.562 298.18 551 298.168 556.006
C 298.143 566.515 298.205 577.015 297.95 587.518
C 298.865 587.034 299.549 585.827 300.216 585.049
C 301.543 583.501 302.906 581.948 304.421 580.582
C 309.832 575.705 316.559 572.814 323.853 572.289
C 330.21 571.832 336.354 572.79 342.265 575.21
C 367.116 585.382 373.829 618.738 362.573 641.224
C 353.721 658.905 331.179 670.216 312.323 661.267
C 305.908 658.222 302.082 653.485 297.618 648.229
C 298.021 652.791 297.86 657.406 297.74 661.976
C 295.573 662.272 293.233 662.021 291.042 662.025
C 285.536 662.036 279.977 661.792 274.493 661.986
C 274.228 654.911 274.24 647.705 274.516 640.629 Z
M 297.902 613.088
C 296.567 621.745 298.633 631.54 305.373 637.588
C 314.484 645.763 329.208 645.354 337.429 636.13
C 340.675 632.487 342.464 627.519 343.219 622.762
C 344.676 613.587 342.194 603.807 334.847 597.754
C 326.315 590.725 313.031 591.176 304.985 598.746
C 301.12 602.382 298.701 607.901 297.902 613.088 Z"
opacity="1" fill="rgb(254,254,255)" fill-rule="evenodd" />
<path d="
M 359.383 390.483
C 363.371 387.283 367.839 384.717 372.111 381.927
C 379.405 377.163 386.596 372.231 393.876 367.441
C 411.794 355.651 429.335 343.116 447.643 331.948
C 447.284 340.939 447.463 349.991 447.446 358.996
C 447.442 361.46 447.423 363.924 447.422 366.388
C 447.422 367.338 447.719 368.826 447.224 369.668
C 433.321 379.028 419.404 388.467 405.289 397.511
C 401.329 400.048 397.507 402.8 393.521 405.293
C 392.521 405.919 389.645 407.18 389.213 408.25
C 393.763 411.451 398.665 414.271 403.303 417.377
C 413.155 423.974 423.024 430.548 432.848 437.187
C 436.381 439.574 439.96 441.913 443.585 444.157
C 444.604 444.788 447.248 445.923 447.562 447.127
C 447.75 455.548 447.473 464.065 447.379 472.497
C 447.338 476.109 446.666 480.455 447.418 483.993
C 446.322 483.664 445.445 482.73 444.521 482.085
C 443.066 481.068 441.51 480.221 439.997 479.297
C 433.634 475.412 427.618 470.951 421.371 466.883
C 406.993 457.521 392.753 447.949 378.431 438.503
C 374.558 435.949 370.705 433.364 366.836 430.804
C 364.336 429.15 361.408 427.675 359.24 425.591
C 358.673 422.061 359.197 418.084 359.199 414.505
C 359.203 406.616 359.35 398.708 359.051 390.825
C 359.162 390.711 359.273 390.597 359.383 390.483 Z"
opacity="1" fill="rgb(14,169,254)" fill-rule="evenodd" />
<path d="
M 377.462 598.116
C 378.337 594.303 378.326 590.359 379.45 586.542
C 382.355 576.683 387.508 567.103 394.955 559.917
C 413.047 542.459 440.948 538.254 463.63 548.927
C 470.638 552.224 478.448 557.462 482.592 564.188
C 482.376 565.565 479.337 567.306 478.303 568.172
C 474.94 570.987 471.828 574.101 468.493 576.949
C 467.624 577.691 466.891 578.703 465.942 579.329
C 460.366 574.155 454.693 569.204 447.136 567.162
C 441.75 565.707 436.45 565.307 430.92 566.265
C 427.667 566.829 424.249 568.002 421.332 569.547
C 395.468 583.249 395.466 627.119 423.148 638.792
C 427.442 640.603 431.91 641.417 436.556 641.489
C 441.245 641.562 446.222 640.93 450.601 639.166
C 456.691 636.712 462.42 632.821 466.901 628.003
C 468.46 628.847 469.811 630.191 471.178 631.313
C 473.93 633.57 476.768 635.716 479.485 638.015
C 480.768 639.099 483.34 640.512 483.979 642.06
C 482.558 645.382 478.846 647.97 476.177 650.222
C 466.95 658.008 455.456 662.611 443.489 663.939
C 421.508 666.379 398.274 656.506 386.426 637.443
C 382.158 630.575 379.556 623.033 378.153 615.096
C 377.184 609.615 376.829 603.656 377.462 598.116 Z"
opacity="1" fill="rgb(254,254,255)" fill-rule="evenodd" />
<path d="
M 460.928 496.057
C 469.356 476.166 477.178 455.998 485.275 435.972
C 496.155 409.061 507.483 382.327 518.192 355.347
C 522.893 343.506 527.345 331.486 532.438 319.815
C 539.783 319.834 547.147 319.759 554.5 319.777
C 557.837 319.785 561.655 319.319 564.934 319.937
C 561.104 330.97 556.318 341.718 551.929 352.538
C 544.626 370.546 537.179 388.51 529.964 406.556
C 521.612 427.445 513.096 448.281 504.449 469.05
C 500.609 478.271 497.216 487.706 493.187 496.843
C 488.95 497.316 484.546 496.969 480.286 497.021
C 473.739 497.1 467.091 497.337 460.569 497.031
C 460.768 496.376 460.649 496.701 460.928 496.057 Z"
opacity="1" fill="rgb(14,170,254)" fill-rule="evenodd" />
<path d="
M 490.476 612.108
C 492 598.826 500.056 586.109 511.562 579.213
C 530.686 567.748 558.719 570.561 573.135 588.367
C 577.073 593.231 579.769 598.743 581.481 604.755
C 583.209 610.825 583.97 617.277 583.23 623.565
C 581.866 635.158 576.498 645.916 567.371 653.338
C 547.747 669.297 515.274 667.827 499.58 646.8
C 496.573 642.771 493.995 638.245 492.475 633.44
C 490.325 626.644 489.663 619.194 490.476 612.108 Z
M 513.479 616.612
C 513.273 621.218 513.95 626.075 515.85 630.297
C 521.338 642.486 536.606 647.976 548.336 640.864
C 555.843 636.313 559.754 627.837 560.175 619.304
C 560.578 611.144 557.364 602.512 550.891 597.334
C 539.355 588.106 522.567 593.11 516.175 605.744
C 514.479 609.096 513.647 612.871 513.479 616.612 Z"
opacity="1" fill="rgb(254,254,255)" fill-rule="evenodd" />
<path d="
M 576.503 447.607
C 576.534 447.434 576.565 447.261 576.596 447.088
C 582.395 442.609 588.557 438.597 594.666 434.556
C 602.336 429.481 609.807 424.106 617.509 419.072
C 621.823 416.253 626.25 413.591 630.478 410.639
C 631.623 409.84 633.406 409.315 634.351 408.385
C 634.427 407.314 631.746 406.199 630.926 405.682
C 627.363 403.439 623.907 401.026 620.39 398.711
C 610.746 392.365 601.107 386.005 591.466 379.653
C 586.599 376.447 581.109 373.389 576.73 369.539
C 576.229 365.319 576.659 360.754 576.673 356.498
C 576.698 348.417 576.669 340.33 576.798 332.253
C 577.144 331.328 577.997 332.239 578.633 332.671
C 580.47 333.92 582.27 335.205 584.141 336.409
C 591.884 341.389 599.385 346.732 607.119 351.723
C 620.912 360.624 634.621 369.732 648.232 378.907
C 652.248 381.614 656.326 384.225 660.304 386.99
C 662.075 388.221 664.086 389.232 665.656 390.722
C 666.307 397.217 665.65 403.982 665.663 410.507
C 665.672 415.214 666.387 420.52 665.522 425.159
C 663.782 427.187 660.722 428.562 658.486 429.992
C 653.749 433.022 649.068 436.134 644.344 439.18
C 628.596 449.335 613.273 460.167 597.41 470.145
C 592.2 473.423 587.147 477.039 582.006 480.429
C 580.7 481.29 579.38 482.115 578.105 483.019
C 577.604 483.375 577.159 483.961 576.542 483.74
C 576.571 471.698 576.846 459.644 576.503 447.607 Z"
opacity="1" fill="rgb(254,254,255)" fill-rule="evenodd" />
<path d="
M 592.952 612.108
C 594.531 605.383 595.404 599.141 598.95 593.011
C 607.824 577.669 625.36 568.892 642.968 573.13
C 648.031 574.349 652.847 576.799 656.727 580.282
C 658.267 581.665 659.558 583.16 660.851 584.768
C 661.174 585.169 661.797 586.18 662.33 586.006
C 662.916 580.687 662.236 574.873 662.237 569.502
C 662.239 559.856 662.616 550.141 662.278 540.504
C 670.05 540.962 678.183 539.296 685.951 540.457
C 685.251 555.747 685.786 571.197 685.753 586.506
C 685.697 611.715 685.457 636.974 685.821 662.173
C 680.56 661.988 675.273 662.039 670.008 662.045
C 667.679 662.048 665.144 662.389 662.841 662.082
C 662.784 657.851 662.948 653.559 662.594 649.378
C 660.413 651.424 658.826 654.047 656.566 656.025
C 652.312 659.749 647.142 662.117 641.681 663.444
C 637.857 664.374 633.814 664.579 629.909 664.153
C 604.656 661.402 589.832 636.065 592.952 612.108 Z
M 616.414 614.094
C 615.04 624.113 618.505 634.853 627.305 640.456
C 636.647 646.406 649.965 643.841 657.068 635.608
C 660.156 632.029 661.917 627.573 662.633 622.934
C 663.696 616.052 662.696 608.552 658.796 602.686
C 651.853 592.242 636.94 589.211 626.616 596.353
C 620.769 600.398 617.364 607.158 616.414 614.094 Z"
opacity="1" fill="rgb(254,254,255)" fill-rule="evenodd" />
<path d="
M 698.953 614.124
C 699.581 610.946 699.564 607.709 700.446 604.542
C 702.859 595.879 707.377 588.348 714.305 582.514
C 730.594 568.796 756.813 568.757 772.108 584.057
C 780.744 592.696 784.572 604.676 785.254 616.614
C 785.42 619.505 785.772 622.589 785.417 625.471
C 781.812 625.788 778.12 625.53 774.501 625.618
C 762.514 625.908 750.497 625.792 738.507 625.76
C 732.788 625.744 727.011 625.46 721.3 625.819
C 722.921 631.546 725.081 636.56 729.983 640.285
C 738.366 646.654 751.039 645.73 759.725 640.492
C 761.968 639.139 764.357 637.765 765.974 635.653
C 766.869 635.319 768.932 638.115 769.72 638.772
C 772.118 640.772 774.549 642.73 776.932 644.747
C 778.137 645.767 779.456 647.215 780.889 647.873
C 780.087 649.544 777.43 651.018 776.027 652.244
C 769.829 657.659 762.409 661.519 754.32 663.181
C 735.591 667.027 714.907 659.871 705.014 642.895
C 702.685 638.897 700.986 634.505 699.987 629.988
C 698.867 624.922 698.419 619.297 698.953 614.124 Z
M 721.489 609.588
C 721.355 610.319 721.421 609.952 721.292 610.69
C 725.134 611.041 729.13 610.753 732.996 610.757
C 742.922 610.766 752.925 610.404 762.841 610.763
C 762.047 605.153 759.223 598.781 754.611 595.277
C 746.061 588.781 732.895 590.91 726.201 598.972
C 723.648 602.047 722.322 605.73 721.489 609.588 Z"
opacity="1" fill="rgb(254,254,255)" fill-rule="evenodd" />
<path d="
M 791.307 650.112
C 791.88 648.814 793.195 647.586 794.09 646.472
C 795.395 644.847 796.536 643.096 797.819 641.455
C 799.344 639.502 801.45 637.359 802.276 634.993
C 805.247 636.512 807.766 639.056 810.706 640.74
C 816.889 644.28 824.259 646.133 831.383 645.845
C 836.731 645.628 844.008 642.179 841.483 635.585
C 841.152 634.721 840.626 633.968 839.974 633.315
C 836.561 629.898 831.318 629.093 826.862 627.83
C 817.134 625.074 804.939 623.707 798.903 614.504
C 797.755 612.753 796.86 610.823 796.189 608.841
C 793.089 599.693 794.91 587.932 802.215 581.185
C 807.548 576.26 814.898 573.828 821.983 572.865
C 832.205 571.476 843.719 573.377 852.941 577.991
C 856.009 579.525 858.539 581.559 861.295 583.521
C 860.794 584.914 859.47 586.154 858.627 587.368
C 855.996 591.152 852.914 594.711 850.674 598.755
C 850.3 598.839 849.243 597.827 848.891 597.605
C 847.452 596.696 845.967 595.788 844.395 595.125
C 838.028 592.44 830.76 589.873 823.746 591.253
C 820.568 591.879 816.852 593.437 816.038 596.958
C 815.25 600.368 817.074 603.126 820.047 604.663
C 824.784 607.112 830.516 607.841 835.65 609.096
C 846.142 611.663 858.589 615.223 862.723 626.468
C 863.604 628.867 863.879 631.34 864.021 633.873
C 864.171 636.547 864.072 639.263 863.506 641.889
C 862.927 644.577 862.111 647.204 860.75 649.61
C 851.845 665.348 829.257 666.185 813.814 662.201
C 810.595 661.371 807.308 660.278 804.305 658.841
C 799.446 656.515 795.429 653.528 791.307 650.112 Z"
opacity="1" fill="rgb(254,254,255)" fill-rule="evenodd" />

</svg>